<?xml version="1.0" encoding="utf-8"?>
<!-- Svg Vector Icons : http://www.onlinewebfonts.com/icon -->
<!DOCTYPE svg PUBLIC "-//W3C//DTD SVG 1.1//EN" "http://www.w3.org/Graphics/SVG/1.1/DTD/svg11.dtd">
<svg version="1.1" xmlns="http://www.w3.org/2000/svg" xmlns:xlink="http://www.w3.org/1999/xlink" x="0px" y="0px" viewBox="0 0 1000 1000" enable-background="new 0 0 1000 1000" xml:space="preserve">
<metadata> Svg Vector Icons : http://www.onlinewebfonts.com/icon </metadata>
<g><path d="M500,10C229.8,10,10,229.8,10,500c0,270.2,219.8,490,490,490c270.2,0,490-219.8,490-490C990,229.8,770.2,10,500,10z M500,941.8C256.4,941.8,58.2,743.6,58.2,500S256.4,58.2,500,58.2c243.6,0,441.8,198.2,441.8,441.8S743.6,941.8,500,941.8z"/><path d="M475.3,335.3c-9.4-9.4-24.7-9.4-34.1,0s-9.4,24.7,0,34.1L571.9,500L441.3,630.6c-9.4,9.4-9.4,24.7,0,34.1c4.7,4.7,10.9,7.1,17,7.1c6.2,0,12.3-2.4,17-7.1L623,517c9.4-9.4,9.4-24.7,0-34.1L475.3,335.3z"/></g>
</svg>